name analog
datacolumns 19
datarows 27
range 0.0 0.013000000000000001
endheader
time	ground_force_vx	ground_force_vy	ground_force_vz	ground_force_px	ground_force_py	ground_force_pz	l_ground_force_vx	l_ground_force_vy	l_ground_force_vz	l_ground_force_px	l_ground_force_py	l_ground_force_pz	ground_torque_x	ground_torque_y	ground_torque_z	l_ground_torque_x	l_ground_torque_y	l_ground_torque_z
0.0	-0.0	-0.0	-0.0	-4.903769493103027	-4.102804660797119	-568.6642456054688	3.814563751220703	4.676384925842285	-54.12771987915039	-0.0	-0.0	-0.0	-0.0	-0.0	-0.0	20252.201171875	-520.80859375	-323.18701171875
0.0005	-0.0	-0.0	-0.0	-4.978499412536621	-4.531255722045898	-568.2778930664062	3.8218085765838623	4.683453559875488	-55.14694595336914	-0.0	-0.0	-0.0	-0.0	-0.0	-0.0	20379.392578125	-183.45188903808597	-499.5734558105469
0.001	-0.0	-0.0	-0.0	-4.181199073791504	-4.114603996276856	-568.972900390625	3.4621775150299072	4.590281486511231	-53.82736587524414	-0.0	-0.0	-0.0	-0.0	-0.0	-0.0	20055.380859375	-263.48394775390625	-439.6892700195313
0.0015	-0.0	-0.0	-0.0	-4.011490821838379	-4.637760162353516	-569.9852294921875	3.720823049545288	4.501902103424072	-55.79496765136719	-0.0	-0.0	-0.0	-0.0	-0.0	-0.0	20380.609375	-248.75833129882807	-443.6937561035156
0.002	-0.0	-0.0	-0.0	-4.106738567352295	-4.720859050750732	-568.6439208984375	3.4700701236724854	4.681049346923828	-54.47783660888672	-0.0	-0.0	-0.0	-0.0	-0.0	-0.0	20309.310546875	-312.7423400878906	-443.0340881347656
0.0025	-0.0	-0.0	-0.0	-4.2821044921875	-4.299920082092285	-569.728271484375	3.287557601928711	4.852457046508789	-53.7383041381836	-0.0	-0.0	-0.0	-0.0	-0.0	-0.0	19778.96484375	-446.1809997558594	-499.83880615234375
0.003	-0.0	-0.0	-0.0	-3.826633930206299	-5.169563293457031	-570.044921875	3.379023551940918	5.106700897216797	-53.40968322753906	-0.0	-0.0	-0.0	-0.0	-0.0	-0.0	19880.8984375	-208.54537963867188	-504.1613464355469
0.0035	-0.0	-0.0	-0.0	-3.8360519409179688	-5.093270301818848	-571.3943481445312	3.3792407512664795	4.940551280975342	-52.72189331054688	-0.0	-0.0	-0.0	-0.0	-0.0	-0.0	19755.25	-381.4730529785156	-531.2119140625
0.004	-0.0	-0.0	-0.0	-3.902368307113648	-5.8597331047058105	-570.3856201171875	3.2907042503356934	4.863271713256836	-52.03461837768555	-0.0	-0.0	-0.0	-0.0	-0.0	-0.0	19449.5390625	-153.85443115234375	-617.4954223632812
0.0045000000000000005	-0.0	-0.0	-0.0	-3.750184774398804	-5.347824096679688	-572.4517211914062	3.6400163173675537	5.122657775878906	-52.0349006652832	-0.0	-0.0	-0.0	-0.0	-0.0	-0.0	19952.85546875	-247.11383056640625	-555.8823852539062
0.005	-0.0	-0.0	-0.0	-3.2940168380737305	-6.054101467132568	-571.1321411132812	3.3797595500946045	5.219690799713135	-51.056488037109375	-0.0	-0.0	-0.0	-0.0	-0.0	-0.0	19550.66015625	-546.8213500976562	-468.9446105957031
0.0055	-0.0	-0.0	-0.0	-3.129257202148437	-5.526084899902344	-572.504638671875	3.291223526000977	4.866578102111816	-52.01188278198242	-0.0	-0.0	-0.0	-0.0	-0.0	-0.0	19456.498046875	-557.1356201171875	-527.3916625976562
0.006	-0.0	-0.0	-0.0	-3.1469900608062744	-6.046810150146484	-571.79833984375	3.5362424850463867	5.1256914138793945	-53.05905151367188	-0.0	-0.0	-0.0	-0.0	-0.0	-0.0	19561.720703125	-264.3544006347656	-531.15478515625
0.006500000000000001	-0.0	-0.0	-0.0	-2.8796539306640625	-5.36205005645752	-571.515625	3.643320560455322	4.952165603637695	-52.3848991394043	-0.0	-0.0	-0.0	-0.0	-0.0	-0.0	19639.18359375	-533.369873046875	-503.5386657714844
0.007	-0.0	-0.0	-0.0	-3.0331573486328125	-6.050071716308594	-569.0299072265625	3.456589460372925	5.132009983062744	-53.40787124633789	-0.0	-0.0	-0.0	-0.0	-0.0	-0.0	19427.314453125	-260.67730712890625	-385.01165771484375
0.0075	-0.0	-0.0	-0.0	-3.2824156284332275	-5.280721664428711	-570.4437866210938	3.5452277660369877	5.5546979904174805	-52.41056823730469	-0.0	-0.0	-0.0	-0.0	-0.0	-0.0	19466.8671875	-210.4613800048828	-409.2218322753906
0.008	-0.0	-0.0	-0.0	-3.0368905067443848	-5.778556823730469	-570.7979125976562	3.9887235164642334	5.204484462738037	-51.3381233215332	-0.0	-0.0	-0.0	-0.0	-0.0	-0.0	19292.23046875	-70.09490966796875	-441.892578125
0.0085	-0.0	-0.0	-0.0	-3.370969295501709	-5.518479824066162	-569.356201171875	3.9753143787384033	5.2993011474609375	-53.354583740234375	-0.0	-0.0	-0.0	-0.0	-0.0	-0.0	19422.98828125	-247.3122711181641	-443.0171813964844
0.009000000000000001	-0.0	-0.0	-0.0	-3.4869067668914795	-5.692810535430908	-572.06005859375	3.811187267303467	5.027613162994385	-51.63457107543945	-0.0	-0.0	-0.0	-0.0	-0.0	-0.0	19309.84375	-301.9062805175781	-440.97308349609375
0.0095	-0.0	-0.0	-0.0	-3.1301817893981934	-5.27040433883667	-568.374755859375	3.807694673538208	5.302720546722412	-51.68795776367188	-0.0	-0.0	-0.0	-0.0	-0.0	-0.0	19670.498046875	-465.3796081542969	-270.9608764648437
0.01	-0.0	-0.0	-0.0	-3.56842041015625	-5.347824096679688	-570.2753295898438	3.811056852340698	5.54331636428833	-52.28992462158203	-0.0	-0.0	-0.0	-0.0	-0.0	-0.0	19342.978515625	-360.00494384765625	-290.1765441894531
0.0105	-0.0	-0.0	-0.0	-3.560376644134521	-5.161526679992676	-569.6951293945312	4.080696105957031	5.302834510803223	-51.66046905517578	-0.0	-0.0	-0.0	-0.0	-0.0	-0.0	19361.173828125	-405.78167724609375	-382.5701293945313
0.011	-0.0	-0.0	-0.0	-3.471081018447876	-5.161441802978516	-569.6630859375	3.5592048168182373	5.317177772521973	-52.00945663452149	-0.0	-0.0	-0.0	-0.0	-0.0	-0.0	19410.73828125	-383.4771728515625	-322.422607421875
0.0115	-0.0	-0.0	-0.0	-3.844326496124268	-5.169563293457031	-570.0979614257812	4.062378406524658	4.95695686340332	-51.645599365234375	-0.0	-0.0	-0.0	-0.0	-0.0	-0.0	19419.38671875	-242.0417022705078	-412.3733825683594
0.012	-0.0	-0.0	-0.0	-3.840248107910156	-5.084625244140625	-570.8218383789062	3.8220081329345694	5.376504898071289	-51.61583709716797	-0.0	-0.0	-0.0	-0.0	-0.0	-0.0	19286.02734375	-749.831298828125	-259.1584777832031
0.0125	-0.0	-0.0	-0.0	-3.559882164001465	-5.441219806671143	-571.47900390625	3.49387264251709	5.214757442474365	-51.325286865234375	-0.0	-0.0	-0.0	-0.0	-0.0	-0.0	19214.736328125	-324.7820129394531	-355.9657897949219
0.013000000000000001	-0.0	-0.0	-0.0	-3.577042818069458	-5.6238298416137695	-571.4963989257812	3.814563751220703	5.218618869781494	-51.58383941650391	-0.0	-0.0	-0.0	-0.0	-0.0	-0.0	19099.708984375	-469.0034484863281	-351.9300231933594
